<svg width="12" height="14" viewBox="0 0 12 14" fill="none" xmlns="http://www.w3.org/2000/svg">
<path d="M11 5H9V3.5C9 2.70435 8.68393 1.94129 8.12132 1.37868C7.55871 0.81607 6.79565 0.5 6 0.5C5.20435 0.5 4.44129 0.81607 3.87868 1.37868C3.31607 1.94129 3 2.70435 3 3.5V5H1C0.734784 5 0.48043 5.10536 0.292893 5.29289C0.105357 5.48043 0 5.73478 0 6V13C0 13.2652 0.105357 13.5196 0.292893 13.7071C0.48043 13.8946 0.734784 14 1 14H11C11.2652 14 11.5196 13.8946 11.7071 13.7071C11.8946 13.5196 12 13.2652 12 13V6C12 5.73478 11.8946 5.48043 11.7071 5.29289C11.5196 5.10536 11.2652 5 11 5ZM4 3.5C4 2.96957 4.21071 2.46086 4.58579 2.08579C4.96086 1.71071 5.46957 1.5 6 1.5C6.53043 1.5 7.03914 1.71071 7.41421 2.08579C7.78929 2.46086 8 2.96957 8 3.5V5H4V3.5ZM11 13H1V6H11V13Z" fill="black"/>
</svg>
