<svg width="13" height="14" viewBox="0 0 13 14" fill="none" xmlns="http://www.w3.org/2000/svg">
<path d="M9.99991 8.99999C9.66637 8.99988 9.33619 9.0667 9.02894 9.1965C8.72169 9.32629 8.44361 9.51641 8.21116 9.75561L5.32991 7.90374C5.55655 7.32255 5.55655 6.67742 5.32991 6.09624L8.21116 4.24436C8.64394 4.68769 9.22592 4.95452 9.84426 4.99313C10.4626 5.03174 11.0733 4.83937 11.5578 4.45333C12.0424 4.06729 12.3664 3.51506 12.4669 2.90373C12.5675 2.2924 12.4374 1.66551 12.102 1.14459C11.7666 0.623684 11.2498 0.245867 10.6516 0.0843933C10.0535 -0.0770803 9.41672 -0.0107062 8.86474 0.270647C8.31276 0.552 7.88492 1.02829 7.66416 1.60717C7.4434 2.18605 7.44544 2.82628 7.66991 3.40374L4.78866 5.25561C4.4417 4.89941 3.9964 4.65477 3.50968 4.55295C3.02296 4.45114 2.51694 4.49678 2.0563 4.68405C1.59565 4.87132 1.20132 5.1917 0.923705 5.60424C0.646089 6.01678 0.497803 6.50274 0.497803 6.99999C0.497803 7.49724 0.646089 7.9832 0.923705 8.39574C1.20132 8.80828 1.59565 9.12866 2.0563 9.31593C2.51694 9.50319 3.02296 9.54884 3.50968 9.44702C3.9964 9.34521 4.4417 9.10057 4.78866 8.74436L7.66991 10.5962C7.47689 11.0941 7.44833 11.6406 7.5884 12.1559C7.72848 12.6711 8.02984 13.1279 8.44835 13.4595C8.86685 13.7911 9.38053 13.98 9.91415 13.9985C10.4478 14.017 10.9733 13.8642 11.4138 13.5624C11.8543 13.2606 12.1866 12.8258 12.362 12.3215C12.5375 11.8172 12.5469 11.27 12.3888 10.76C12.2308 10.25 11.9136 9.80395 11.4837 9.48725C11.0538 9.17054 10.5338 8.99979 9.99991 8.99999ZM9.99991 0.999988C10.2966 0.999988 10.5866 1.08796 10.8333 1.25278C11.0799 1.41761 11.2722 1.65187 11.3857 1.92596C11.4993 2.20005 11.529 2.50165 11.4711 2.79262C11.4132 3.08359 11.2703 3.35087 11.0606 3.56065C10.8508 3.77043 10.5835 3.91329 10.2925 3.97117C10.0016 4.02904 9.69997 3.99934 9.42588 3.88581C9.15179 3.77228 8.91752 3.58002 8.7527 3.33334C8.58788 3.08667 8.49991 2.79666 8.49991 2.49999C8.49991 2.10216 8.65794 1.72063 8.93925 1.43933C9.22055 1.15802 9.60208 0.999988 9.99991 0.999988ZM2.99991 8.49999C2.70323 8.49999 2.41322 8.41201 2.16655 8.24719C1.91988 8.08237 1.72762 7.8481 1.61409 7.57401C1.50056 7.29992 1.47085 6.99832 1.52873 6.70735C1.58661 6.41638 1.72947 6.14911 1.93925 5.93933C2.14902 5.72955 2.4163 5.58669 2.70727 5.52881C2.99824 5.47093 3.29984 5.50064 3.57393 5.61417C3.84802 5.7277 4.08229 5.91996 4.24711 6.16663C4.41193 6.41331 4.49991 6.70332 4.49991 6.99999C4.49991 7.39781 4.34187 7.77934 4.06057 8.06065C3.77926 8.34195 3.39773 8.49999 2.99991 8.49999ZM9.99991 13C9.70323 13 9.41323 12.912 9.16655 12.7472C8.91988 12.5824 8.72762 12.3481 8.61409 12.074C8.50056 11.7999 8.47085 11.4983 8.52873 11.2074C8.58661 10.9164 8.72947 10.6491 8.93925 10.4393C9.14902 10.2295 9.4163 10.0867 9.70727 10.0288C9.99824 9.97093 10.2998 10.0006 10.5739 10.1142C10.848 10.2277 11.0823 10.42 11.2471 10.6666C11.4119 10.9133 11.4999 11.2033 11.4999 11.5C11.4999 11.8978 11.3419 12.2793 11.0606 12.5606C10.7793 12.842 10.3977 13 9.99991 13Z" fill="#252C32"/>
</svg>
